<svg width="14" height="32" viewBox="0 0 14 32" fill="none" xmlns="http://www.w3.org/2000/svg">
<path d="M1.19965 20.9656H13.2414L12.0417 32.0001H0L1.19965 20.9656Z" fill="#97B8DD"/>
<path d="M8.79989 6.7931V12.669L8.27575 19.069H4.44127L3.91713 12.669V6.7931H8.79989ZM6.34472 20.6138C7.1907 20.6138 7.84357 20.8161 8.30334 21.2207C8.7815 21.6253 9.02058 22.1954 9.02058 22.931C9.02058 23.6483 8.7815 24.2092 8.30334 24.6138C7.84357 25.0184 7.1907 25.2207 6.34472 25.2207C5.53552 25.2207 4.89184 25.0184 4.41368 24.6138C3.93552 24.2092 3.69644 23.6483 3.69644 22.931C3.69644 22.1954 3.93552 21.6253 4.41368 21.2207C4.89184 20.8161 5.53552 20.6138 6.34472 20.6138Z" fill="#0D2237"/>
</svg>
